<svg width="2245" height="536" viewBox="0 0 2245 536" fill="none" xmlns="http://www.w3.org/2000/svg">
    <path
        d="M682.35 409.057V197.712H705.165V222.129H707.967C709.702 219.461 712.103 216.058 715.172 211.922C718.308 207.719 722.777 203.983 728.581 200.715C734.452 197.379 742.391 195.711 752.397 195.711C765.34 195.711 776.747 198.947 786.621 205.418C796.494 211.889 804.2 221.062 809.737 232.937C815.274 244.811 818.042 258.821 818.042 274.965C818.042 291.243 815.274 305.353 809.737 317.294C804.2 329.169 796.528 338.375 786.721 344.913C776.914 351.384 765.607 354.62 752.798 354.62C742.924 354.62 735.019 352.985 729.082 349.716C723.144 346.381 718.574 342.611 715.372 338.409C712.17 334.139 709.702 330.603 707.967 327.801H705.966V409.057H682.35ZM705.565 274.565C705.565 286.173 707.267 296.413 710.669 305.286C714.071 314.092 719.041 320.997 725.579 326C732.117 330.937 740.122 333.405 749.596 333.405C759.469 333.405 767.708 330.803 774.312 325.6C780.984 320.33 785.987 313.258 789.323 304.385C792.725 295.446 794.426 285.506 794.426 274.565C794.426 263.758 792.758 254.018 789.423 245.345C786.154 236.606 781.184 229.701 774.513 224.631C767.908 219.494 759.602 216.926 749.596 216.926C739.989 216.926 731.917 219.361 725.379 224.231C718.841 229.034 713.905 235.772 710.569 244.444C707.233 253.05 705.565 263.09 705.565 274.565ZM854.067 351.417V197.712H876.883V220.928H878.484C881.286 213.323 886.356 207.152 893.694 202.416C901.032 197.679 909.305 195.311 918.511 195.311C920.245 195.311 922.414 195.344 925.015 195.411C927.617 195.478 929.585 195.578 930.919 195.711V219.728C930.119 219.527 928.284 219.227 925.416 218.827C922.614 218.36 919.645 218.126 916.51 218.126C909.038 218.126 902.367 219.694 896.496 222.83C890.692 225.898 886.089 230.168 882.686 235.638C879.351 241.042 877.683 247.213 877.683 254.151V351.417H854.067ZM1016.68 354.62C1002.8 354.62 990.627 351.317 980.153 344.713C969.746 338.108 961.607 328.869 955.736 316.994C949.932 305.119 947.03 291.243 947.03 275.366C947.03 259.355 949.932 245.378 955.736 233.437C961.607 221.495 969.746 212.222 980.153 205.618C990.627 199.013 1002.8 195.711 1016.68 195.711C1030.55 195.711 1042.7 199.013 1053.1 205.618C1063.58 212.222 1071.72 221.495 1077.52 233.437C1083.39 245.378 1086.33 259.355 1086.33 275.366C1086.33 291.243 1083.39 305.119 1077.52 316.994C1071.72 328.869 1063.58 338.108 1053.1 344.713C1042.7 351.317 1030.55 354.62 1016.68 354.62ZM1016.68 333.405C1027.22 333.405 1035.89 330.703 1042.7 325.3C1049.5 319.896 1054.54 312.791 1057.81 303.985C1061.08 295.179 1062.71 285.639 1062.71 275.366C1062.71 265.092 1061.08 255.519 1057.81 246.646C1054.54 237.773 1049.5 230.602 1042.7 225.131C1035.89 219.661 1027.22 216.926 1016.68 216.926C1006.14 216.926 997.465 219.661 990.66 225.131C983.856 230.602 978.819 237.773 975.55 246.646C972.281 255.519 970.647 265.092 970.647 275.366C970.647 285.639 972.281 295.179 975.55 303.985C978.819 312.791 983.856 319.896 990.66 325.3C997.465 330.703 1006.14 333.405 1016.68 333.405ZM1122.38 351.417V197.712H1145.19V221.729H1147.19C1150.39 213.523 1155.56 207.152 1162.7 202.616C1169.84 198.013 1178.41 195.711 1188.42 195.711C1198.56 195.711 1207 198.013 1213.74 202.616C1220.54 207.152 1225.85 213.523 1229.65 221.729H1231.25C1235.19 213.79 1241.09 207.486 1248.96 202.816C1256.83 198.079 1266.27 195.711 1277.28 195.711C1291.02 195.711 1302.26 200.014 1311 208.62C1319.74 217.159 1324.11 230.468 1324.11 248.547V351.417H1300.5V248.547C1300.5 237.206 1297.39 229.101 1291.19 224.231C1284.99 219.361 1277.68 216.926 1269.28 216.926C1258.47 216.926 1250.1 220.194 1244.16 226.732C1238.22 233.203 1235.25 241.409 1235.25 251.349V351.417H1211.24V246.146C1211.24 237.406 1208.4 230.368 1202.73 225.031C1197.06 219.627 1189.75 216.926 1180.82 216.926C1174.68 216.926 1168.94 218.56 1163.6 221.829C1158.33 225.098 1154.06 229.634 1150.79 235.438C1147.59 241.175 1145.99 247.813 1145.99 255.352V351.417H1122.38ZM1367.29 409.057V197.712H1390.11V222.129H1392.91C1394.64 219.461 1397.05 216.058 1400.11 211.922C1403.25 207.719 1407.72 203.983 1413.52 200.715C1419.39 197.379 1427.33 195.711 1437.34 195.711C1450.28 195.711 1461.69 198.947 1471.56 205.418C1481.44 211.889 1489.14 221.062 1494.68 232.937C1500.22 244.811 1502.99 258.821 1502.99 274.965C1502.99 291.243 1500.22 305.353 1494.68 317.294C1489.14 329.169 1481.47 338.375 1471.66 344.913C1461.86 351.384 1450.55 354.62 1437.74 354.62C1427.87 354.62 1419.96 352.985 1414.02 349.716C1408.09 346.381 1403.52 342.611 1400.32 338.409C1397.11 334.139 1394.64 330.603 1392.91 327.801H1390.91V409.057H1367.29ZM1390.51 274.565C1390.51 286.173 1392.21 296.413 1395.61 305.286C1399.01 314.092 1403.98 320.997 1410.52 326C1417.06 330.937 1425.07 333.405 1434.54 333.405C1444.41 333.405 1452.65 330.803 1459.26 325.6C1465.93 320.33 1470.93 313.258 1474.27 304.385C1477.67 295.446 1479.37 285.506 1479.37 274.565C1479.37 263.758 1477.7 254.018 1474.37 245.345C1471.1 236.606 1466.13 229.701 1459.46 224.631C1452.85 219.494 1444.55 216.926 1434.54 216.926C1424.93 216.926 1416.86 219.361 1410.32 224.231C1403.78 229.034 1398.85 235.772 1395.51 244.444C1392.18 253.05 1390.51 263.09 1390.51 274.565ZM1605.86 197.712V217.726H1526.2V197.712H1605.86ZM1549.42 160.887H1573.03V307.387C1573.03 314.059 1574 319.062 1575.94 322.398C1577.94 325.667 1580.47 327.868 1583.54 329.002C1586.68 330.07 1589.98 330.603 1593.45 330.603C1596.05 330.603 1598.18 330.47 1599.85 330.203C1601.52 329.869 1602.85 329.603 1603.85 329.402L1608.66 350.617C1607.06 351.217 1604.82 351.818 1601.95 352.418C1599.08 353.085 1595.45 353.419 1591.05 353.419C1584.37 353.419 1577.84 351.985 1571.43 349.116C1565.09 346.247 1559.82 341.878 1555.62 336.007C1551.49 330.136 1549.42 322.731 1549.42 313.792V160.887ZM1723.94 252.55V274.565H1634.27V252.55H1723.94ZM1765.49 351.417V197.712H1788.31V221.729H1790.31C1793.51 213.523 1798.68 207.152 1805.82 202.616C1812.96 198.013 1821.53 195.711 1831.53 195.711C1841.67 195.711 1850.11 198.013 1856.85 202.616C1863.66 207.152 1868.96 213.523 1872.76 221.729H1874.36C1878.3 213.79 1884.2 207.486 1892.08 202.816C1899.95 198.079 1909.39 195.711 1920.4 195.711C1934.14 195.711 1945.38 200.014 1954.12 208.62C1962.86 217.159 1967.23 230.468 1967.23 248.547V351.417H1943.61V248.547C1943.61 237.206 1940.51 229.101 1934.3 224.231C1928.1 219.361 1920.8 216.926 1912.39 216.926C1901.58 216.926 1893.21 220.194 1887.27 226.732C1881.34 233.203 1878.37 241.409 1878.37 251.349V351.417H1854.35V246.146C1854.35 237.406 1851.51 230.368 1845.84 225.031C1840.17 219.627 1832.87 216.926 1823.93 216.926C1817.79 216.926 1812.05 218.56 1806.72 221.829C1801.45 225.098 1797.18 229.634 1793.91 235.438C1790.71 241.175 1789.11 247.813 1789.11 255.352V351.417H1765.49ZM2032.42 295.379L2032.02 266.159H2036.82L2104.07 197.712H2133.29L2061.64 270.162H2059.64L2032.42 295.379ZM2010.41 351.417V146.477H2034.02V351.417H2010.41ZM2108.07 351.417L2048.03 275.366L2064.84 258.954L2138.09 351.417H2108.07ZM2230.53 197.712V217.726H2150.88V197.712H2230.53ZM2174.09 160.887H2197.71V307.387C2197.71 314.059 2198.68 319.062 2200.61 322.398C2202.61 325.667 2205.15 327.868 2208.22 329.002C2211.35 330.07 2214.65 330.603 2218.12 330.603C2220.73 330.603 2222.86 330.47 2224.53 330.203C2226.2 329.869 2227.53 329.603 2228.53 329.402L2233.33 350.617C2231.73 351.217 2229.5 351.818 2226.63 352.418C2223.76 353.085 2220.13 353.419 2215.72 353.419C2209.05 353.419 2202.51 351.985 2196.11 349.116C2189.77 346.247 2184.5 341.878 2180.3 336.007C2176.16 330.136 2174.09 322.731 2174.09 313.792V160.887Z"
        fill="white" />
    <path fill-rule="evenodd" clip-rule="evenodd"
        d="M11.2587 53.9026C0 75.5764 0 104.051 0 161V375C0 431.949 0 460.424 11.2587 482.097C20.7462 500.362 35.6382 515.254 53.9026 524.741C75.5764 536 104.051 536 161 536H375C431.949 536 460.424 536 482.097 524.741C500.362 515.254 515.254 500.362 524.741 482.097C536 460.424 536 431.949 536 375V161C536 104.051 536 75.5764 524.741 53.9026C515.254 35.6382 500.362 20.7462 482.097 11.2587C460.424 0 431.949 0 375 0H161C104.051 0 75.5764 0 53.9026 11.2587C35.6382 20.7462 20.7462 35.6382 11.2587 53.9026ZM105.171 231.235L214.083 174.595V164.168L105.171 107.669V125.563C105.171 127.16 105.546 128.569 106.298 129.79C107.049 130.917 108.364 131.95 110.243 132.89L173.505 165.014C177.168 166.892 181.395 168.348 186.186 169.382C183.838 169.945 181.583 170.603 179.423 171.354C177.356 172.012 175.384 172.857 173.505 173.89L110.243 205.874C108.364 206.813 107.049 207.893 106.298 209.114C105.546 210.335 105.171 211.697 105.171 213.2V231.235Z"
        fill="white" />
</svg>